<svg width="71" height="71" viewBox="0 0 71 71" fill="none" xmlns="http://www.w3.org/2000/svg">
<path d="M5.91669 18.0833C5.91669 17.867 5.9868 17.6566 6.12934 17.4938C7.12385 16.3579 11.6538 11.8333 20.7084 11.8333C29.7629 11.8333 34.2929 16.3579 35.2874 17.4938C35.4299 17.6566 35.5 17.867 35.5 18.0833V57.2981C35.5 58.0968 34.5662 58.6456 33.8274 58.342C31.6976 57.4667 27.4613 56.2083 20.7084 56.2083C13.9554 56.2083 9.71913 57.4667 7.58927 58.342C6.85053 58.6456 5.91669 58.0968 5.91669 57.2982V18.0833ZM35.5 18.0833C35.5 17.867 35.5701 17.6566 35.7127 17.4938C36.7072 16.3579 41.2371 11.8333 50.2917 11.8333C59.3462 11.8333 63.8762 16.3579 64.8707 17.4938C65.0132 17.6566 65.0834 17.867 65.0834 18.0833V57.2981C65.0834 58.0968 64.1495 58.6456 63.4108 58.342C61.2809 57.4667 57.0447 56.2083 50.2917 56.2083C43.5387 56.2083 39.3025 57.4667 37.1726 58.342C36.4339 58.6456 35.5 58.0968 35.5 57.2982V18.0833Z" stroke="white" stroke-width="4" stroke-linecap="round" stroke-linejoin="round"/>
</svg>
