<svg width="34" height="34" viewBox="0 0 34 34" fill="none" xmlns="http://www.w3.org/2000/svg">
<path fill-rule="evenodd" clip-rule="evenodd" d="M16.9998 1.41666C8.39359 1.41666 1.4165 8.39375 1.4165 17C1.4165 25.6062 8.39359 32.5833 16.9998 32.5833C25.6061 32.5833 32.5832 25.6062 32.5832 17C32.5832 8.39375 25.6061 1.41666 16.9998 1.41666ZM23.7545 14.365C23.8789 14.2228 23.9736 14.0572 24.033 13.8779C24.0924 13.6986 24.1154 13.5092 24.1006 13.3209C24.0857 13.1326 24.0334 12.9491 23.9466 12.7813C23.8598 12.6136 23.7403 12.4648 23.5952 12.3439C23.4501 12.223 23.2822 12.1323 23.1016 12.0772C22.9209 12.0221 22.731 12.0036 22.5431 12.023C22.3552 12.0424 22.173 12.0991 22.0074 12.1899C21.8417 12.2807 21.6959 12.4037 21.5785 12.5517L15.4868 19.8602L12.3348 16.7067C12.0676 16.4487 11.7097 16.3059 11.3383 16.3091C10.9668 16.3124 10.6115 16.4613 10.3488 16.724C10.0862 16.9867 9.93719 17.342 9.93396 17.7134C9.93074 18.0849 10.0735 18.4427 10.3316 18.7099L14.5816 22.9599C14.7208 23.099 14.8874 23.2076 15.0709 23.2787C15.2544 23.3499 15.4507 23.382 15.6473 23.3731C15.8439 23.3642 16.0365 23.3144 16.2128 23.2269C16.389 23.1394 16.5452 23.0162 16.6712 22.865L23.7545 14.365Z" fill="black"/>
</svg>
