<svg width="26" height="26" viewBox="0 0 26 26" fill="none" xmlns="http://www.w3.org/2000/svg">
<path d="M23.6226 10.8783H22.75V10.8333H13V15.1667H19.1224C18.2292 17.6892 15.8291 19.5 13 19.5C9.41037 19.5 6.49999 16.5896 6.49999 13C6.49999 9.41038 9.41037 6.50001 13 6.50001C14.6569 6.50001 16.1644 7.12509 17.3122 8.14613L20.3764 5.08192C18.4416 3.27871 15.8535 2.16667 13 2.16667C7.01728 2.16667 2.16666 7.0173 2.16666 13C2.16666 18.9827 7.01728 23.8333 13 23.8333C18.9827 23.8333 23.8333 18.9827 23.8333 13C23.8333 12.2736 23.7586 11.5646 23.6226 10.8783Z" fill="#FFC107"/>
<path d="M3.41574 7.95763L6.97503 10.5679C7.93812 8.18351 10.2705 6.50001 13 6.50001C14.6569 6.50001 16.1644 7.12509 17.3122 8.14613L20.3764 5.08192C18.4416 3.27871 15.8535 2.16667 13 2.16667C8.83891 2.16667 5.23032 4.51588 3.41574 7.95763Z" fill="#FF3D00"/>
<path d="M13 23.8333C15.7982 23.8333 18.3408 22.7625 20.2632 21.021L16.9103 18.1838C15.7861 19.0387 14.4124 19.5011 13 19.5C10.1822 19.5 7.7897 17.7033 6.88837 15.1959L3.35562 17.9178C5.14854 21.4262 8.78962 23.8333 13 23.8333Z" fill="#4CAF50"/>
<path d="M23.6226 10.8783H22.75V10.8333H13V15.1667H19.1225C18.6952 16.3672 17.9256 17.4163 16.9087 18.1843L16.9103 18.1832L20.2632 21.0205C20.026 21.236 23.8333 18.4167 23.8333 13C23.8333 12.2736 23.7586 11.5646 23.6226 10.8783Z" fill="#1976D2"/>
</svg>
