<svg width="16" height="17" viewBox="0 0 16 17" fill="none" xmlns="http://www.w3.org/2000/svg">
<path fill-rule="evenodd" clip-rule="evenodd" d="M2.02267 9.3L11.38 9.3L7.746 12.934C7.67072 13.0081 7.61085 13.0963 7.56984 13.1936C7.52883 13.2909 7.50749 13.3954 7.50706 13.501C7.50663 13.6066 7.52712 13.7113 7.56733 13.8089C7.60755 13.9066 7.6667 13.9953 7.74137 14.07C7.81605 14.1446 7.90477 14.2038 8.00242 14.244C8.10007 14.2842 8.20471 14.3047 8.31032 14.3043C8.41592 14.3038 8.52039 14.2825 8.61771 14.2415C8.71503 14.2005 8.80327 14.1406 8.87733 14.0653L13.8773 9.06534C13.8793 9.064 13.88 9.06134 13.882 9.05934C13.9917 8.94741 14.0661 8.80573 14.0959 8.65189C14.1258 8.49806 14.1098 8.33884 14.05 8.194C14.01 8.09867 13.9533 8.014 13.882 7.94067L13.8773 7.934L8.87733 2.934C8.72066 2.778 8.516 2.70067 8.312 2.70067C8.15382 2.70068 7.99919 2.74758 7.86766 2.83544C7.73613 2.9233 7.63359 3.04819 7.57302 3.19431C7.51244 3.34043 7.49655 3.50123 7.52734 3.65638C7.55812 3.81154 7.63422 3.95408 7.746 4.066L11.3793 7.7L2.022 7.7C1.80983 7.7 1.60634 7.78429 1.45631 7.93432C1.30628 8.08435 1.222 8.28783 1.222 8.5C1.222 8.71218 1.30628 8.91566 1.45631 9.06569C1.60634 9.21572 1.80983 9.3 2.022 9.3" fill="#FF9119"/>
</svg>
