<svg width="20" height="20" viewBox="0 0 20 20" fill="none" xmlns="http://www.w3.org/2000/svg">
<path d="M19.0283 17.4718L14.8052 13.2487C15.7998 11.9305 16.3965 10.297 16.3965 8.52234C16.3965 4.181 12.8637 0.649086 8.52327 0.649086C4.18194 0.650003 0.650024 4.18192 0.650024 8.52325C0.650024 12.8637 4.18194 16.3965 8.52327 16.3965C10.297 16.3965 11.9314 15.7998 13.2496 14.8052L17.4727 19.0283C17.6872 19.2428 17.9686 19.35 18.25 19.35C18.5314 19.35 18.8129 19.2428 19.0283 19.0273C19.4573 18.5983 19.4573 17.9017 19.0283 17.4718ZM2.85002 8.52325C2.85002 5.39467 5.39469 2.85 8.52327 2.85C11.6509 2.85 14.1956 5.39467 14.1956 8.52234C14.1956 11.65 11.6509 14.1947 8.52327 14.1947C5.39469 14.1956 2.85002 11.6509 2.85002 8.52325V8.52325Z" fill="white"/>
</svg>
